<?xml version="1.0" encoding="UTF-8" standalone="no" ?>
<!DOCTYPE svg PUBLIC "-//W3C//DTD SVG 1.1//EN" "http://www.w3.org/Graphics/SVG/1.1/DTD/svg11.dtd">
<svg xmlns="http://www.w3.org/2000/svg" xmlns:xlink="http://www.w3.org/1999/xlink" version="1.1" width="500" height="500" viewBox="0 0 500 500" xml:space="preserve">
<desc>Created with Fabric.js 5.3.0</desc>
<defs>
</defs>
<g transform="matrix(1 0 0 1 250 250)" id="nap13Ehug8S8j-fcUKd7B"  >
<g style="" vector-effect="non-scaling-stroke"   >
		<g transform="matrix(0.1333333333 0 0 -0.1333333333 0.4614452991 -17.9352315879)" id="zALgU-X1LUhMP0iD4gtCT"  >
<path style="stroke: none; stroke-width: 1; stroke-dasharray: none; stroke-linecap: butt; stroke-dashoffset: 0; stroke-linejoin: miter; stroke-miterlimit: 4; fill: rgb(0,0,0); fill-rule: nonzero; opacity: 1;" vector-effect="non-scaling-stroke"  transform=" translate(-253.4608397432, -384.5142369094)" d="M 157 451 C 108 424 64 398 59 393 C 52 386 81 364 145 326 C 198 295 245 270 250 270 C 264 270 320 304 320 313 C 320 327 289 333 277 321 C 260 304 246 307 179 346 C 108 388 109 388 203 436 L 251 461 L 336 415 C 411 374 462 362 446 389 C 441 397 253 501 247 499 C 246 499 205 477 157 451 z" stroke-linecap="round" />
</g>
		<g transform="matrix(0.1333333333 0 0 -0.1333333333 -15.2531623299 9.0835096264)" id="cHHHRDikrvCpWvaljxsJm"  >
<path style="stroke: none; stroke-width: 1; stroke-dasharray: none; stroke-linecap: butt; stroke-dashoffset: 0; stroke-linejoin: miter; stroke-miterlimit: 4; fill: rgb(0,0,0); fill-rule: nonzero; opacity: 1;" vector-effect="non-scaling-stroke"  transform=" translate(-135.6012825258, -181.8736778022)" d="M 32 249 L 35 125 L 138 63 L 240 0 L 240 125 L 240 250 L 200 270 C 162 290 160 290 160 272 C 160 262 171 247 185 240 C 208 227 210 222 210 148 C 210 92 206 70 198 71 C 191 71 158 88 125 109 L 65 147 L 62 247 C 60 322 55 351 44 361 C 31 371 30 358 32 249 z" stroke-linecap="round" />
</g>
		<g transform="matrix(0.1333333333 0 0 -0.1333333333 15.2398717474 8.1235189063)" id="epKaSgEAzyh3Rdz32SdlU"  >
<path style="stroke: none; stroke-width: 1; stroke-dasharray: none; stroke-linecap: butt; stroke-dashoffset: 0; stroke-linejoin: miter; stroke-miterlimit: 4; fill: rgb(0,0,0); fill-rule: nonzero; opacity: 1;" vector-effect="non-scaling-stroke"  transform=" translate(-364.2990381057, -189.0736082024)" d="M 363 307 L 260 247 L 260 203 C 260 152 283 146 288 197 C 291 222 301 232 363 268 L 435 309 L 438 238 C 440 199 439 162 437 156 C 434 150 394 121 346 92 C 286 55 260 33 260 20 C 260 4 276 10 361 61 C 416 95 464 128 466 134 C 469 141 469 196 468 256 L 465 366 L 363 307 z" stroke-linecap="round" />
</g>
</g>
</g>
<g transform="matrix(0.3229404853 0 0 0.3229404853 262.6651422764 262.6651422764)" id="8_icC5DjfL0Uxw_mhwzQL"  >
<g style="opacity: 0.5;" vector-effect="non-scaling-stroke"   >
		<g transform="matrix(1 0 0 1 -0.0132200406 -0.0059262832)" id="j8yrsRIpATrnGI0ygy0SO"  >
<radialGradient id="SVGID_8" gradientUnits="userSpaceOnUse" gradientTransform="matrix(-1 -0.00434301 -0.00712592 1.6408 131.9857 -79.3452)"  cx="68.8839" cy="124.2963" r="70.587" fx="68.8839" fy="124.2963">
<stop offset="31.44%" style="stop-color:rgb(255,152,0);stop-opacity: 1"/>
<stop offset="66.16%" style="stop-color:rgb(255,109,0);stop-opacity: 1"/>
<stop offset="97.15%" style="stop-color:rgb(244,67,54);stop-opacity: 1"/>
</radialGradient>
<path style="stroke: none; stroke-width: 1; stroke-dasharray: none; stroke-linecap: butt; stroke-dashoffset: 0; stroke-linejoin: miter; stroke-miterlimit: 4; fill: url(#SVGID_8); fill-rule: nonzero; opacity: 1;" vector-effect="non-scaling-stroke"  transform=" translate(-63.9867799594, -63.9940737168)" d="M 35.56 40.73 C 34.99 46.809999999999995 34.59 57.56999999999999 38.18 62.15 C 38.18 62.15 36.49 50.33 51.64 35.5 C 57.74 29.53 59.15 21.41 57.02 15.32 C 55.81 11.870000000000001 53.6 9.02 51.68000000000001 7.030000000000001 C 50.56000000000001 5.860000000000001 51.42000000000001 3.930000000000001 53.050000000000004 4.000000000000002 C 62.910000000000004 4.440000000000002 78.89 7.1800000000000015 85.68 24.22 C 88.66000000000001 31.7 88.88000000000001 39.43 87.46000000000001 47.29 C 86.56 52.31 83.36000000000001 63.47 90.66000000000001 64.84 C 95.87 65.82000000000001 98.39000000000001 61.68000000000001 99.52000000000001 58.7 C 99.99000000000001 57.46 101.62 57.150000000000006 102.50000000000001 58.14 C 111.30000000000001 68.15 112.05000000000001 79.94 110.23000000000002 90.09 C 106.71000000000002 109.71000000000001 86.84000000000002 123.99000000000001 67.10000000000002 123.99000000000001 C 42.440000000000026 123.99000000000001 22.810000000000024 109.88000000000001 17.72000000000002 84.34 C 15.67000000000002 74.03 16.71000000000002 53.63 32.61000000000002 39.230000000000004 C 33.79000000000002 38.150000000000006 35.72000000000002 39.11000000000001 35.560000000000024 40.730000000000004 z" stroke-linecap="round" />
</g>
		<g transform="matrix(1 0 0 1 0.5567815966 20.99164315)" id="906Zw-xCcwc7-vRsfkcXx"  >
<radialGradient id="SVGID_9" gradientUnits="userSpaceOnUse" gradientTransform="matrix(-0.0101 0.9999 0.7525 0.00760378 26.1538 -11.2668)"  cx="64.9211" cy="54.0621" r="73.8599" fx="64.9211" fy="54.0621">
<stop offset="21.41%" style="stop-color:rgb(255,241,118);stop-opacity: 1"/>
<stop offset="32.75%" style="stop-color:rgb(255,242,125);stop-opacity: 1"/>
<stop offset="48.68%" style="stop-color:rgb(255,244,143);stop-opacity: 1"/>
<stop offset="67.22%" style="stop-color:rgb(255,247,173);stop-opacity: 1"/>
<stop offset="79.31%" style="stop-color:rgb(255,249,196);stop-opacity: 1"/>
<stop offset="82.21000000000001%" style="stop-color:rgb(255,248,189);stop-opacity: 0.804"/>
<stop offset="86.27%" style="stop-color:rgb(255,246,171);stop-opacity: 0.529"/>
<stop offset="91.01%" style="stop-color:rgb(255,243,141);stop-opacity: 0.2088"/>
<stop offset="94.08999999999999%" style="stop-color:rgb(255,241,118);stop-opacity: 0"/>
</radialGradient>
<path style="stroke: none; stroke-width: 1; stroke-dasharray: none; stroke-linecap: butt; stroke-dashoffset: 0; stroke-linejoin: miter; stroke-miterlimit: 4; fill: url(#SVGID_9); fill-rule: nonzero; opacity: 1;" vector-effect="non-scaling-stroke"  transform=" translate(-64.5567815966, -84.99164315)" d="M 76.11 77.42 C 67.02 65.72 71.09 52.370000000000005 73.32 47.05 C 73.61999999999999 46.349999999999994 72.82 45.69 72.19 46.12 C 68.28 48.78 60.269999999999996 55.04 56.54 63.849999999999994 C 51.49 75.75999999999999 51.85 81.58999999999999 54.839999999999996 88.71 C 56.63999999999999 93 54.55 93.91 53.49999999999999 94.07 C 52.47999999999999 94.22999999999999 51.53999999999999 93.55 50.78999999999999 92.83999999999999 C 48.63999999999999 90.78999999999999 47.08999999999999 88.11999999999999 46.349999999999994 85.24 C 46.19 84.61999999999999 45.379999999999995 84.44999999999999 45.00999999999999 84.96 C 42.209999999999994 88.83 40.75999999999999 95.03999999999999 40.68999999999999 99.42999999999999 C 40.46999999999999 113 51.67999999999999 124 65.24 124 C 82.33 124 94.78 105.1 84.96 89.3 C 82.11 84.7 79.42999999999999 81.69 76.11 77.42 z" stroke-linecap="round" />
</g>
</g>
</g>
</svg>